<?xml version="1.0" standalone="no"?><!DOCTYPE svg PUBLIC "-//W3C//DTD SVG 1.1//EN" "http://www.w3.org/Graphics/SVG/1.1/DTD/svg11.dtd"><svg t="1656658911760" class="icon" viewBox="0 0 1024 1024" version="1.1" xmlns="http://www.w3.org/2000/svg" p-id="1329" xmlns:xlink="http://www.w3.org/1999/xlink" width="200" height="200"><defs><style type="text/css"></style></defs><path d="M512 85.333333C276.48 85.333333 85.333333 276.48 85.333333 512S276.48 938.666667 512 938.666667 938.666667 747.52 938.666667 512 747.52 85.333333 512 85.333333z m259.413333 353.848889L532.48 682.666667c-5.688889 5.688889-12.515556 7.964444-20.48 7.964444s-14.791111-3.413333-20.48-7.964444l-238.933333-243.484445c-11.377778-11.377778-11.377778-29.582222 0-39.822222 11.377778-11.377778 29.582222-11.377778 39.822222 0L512 621.226667 730.453333 398.222222c11.377778-11.377778 29.582222-11.377778 39.822223 0 12.515556 11.377778 12.515556 29.582222 1.137777 40.96z" p-id="1330"></path></svg>