<?xml version="1.0" standalone="no"?><!DOCTYPE svg PUBLIC "-//W3C//DTD SVG 1.1//EN" "http://www.w3.org/Graphics/SVG/1.1/DTD/svg11.dtd"><svg t="1665561159034" class="icon" viewBox="0 0 1024 1024" version="1.1" xmlns="http://www.w3.org/2000/svg" p-id="1837" xmlns:xlink="http://www.w3.org/1999/xlink" width="200" height="200"><path d="M323.285333 109.696v80C236.8 234.666667 174.08 298.282667 135.125333 380.586667c-38.912 82.261333-47.744 169.514667-26.496 261.717333 24.362667 92.16 73.130667 166.272 146.261334 222.293333 73.088 55.978667 158.805333 84.736 257.109333 86.272 98.304-1.536 184.021333-30.293333 257.109333-86.314666 73.130667-55.978667 121.898667-130.090667 146.261334-222.293334 21.248-92.16 12.373333-179.413333-26.538667-261.674666-38.912-82.304-101.632-145.92-188.117333-190.890667V109.696c109.312 46.506667 190.72 118.314667 244.138666 215.466667 53.504 97.109333 69.589333 202.453333 48.384 315.989333-25.941333 113.493333-82.773333 205.141333-170.453333 274.858667C735.146667 985.728 631.509333 1021.696 512 1024c-119.509333-2.304-223.317333-38.272-311.381333-107.989333C112.554667 846.293333 55.893333 755.029333 30.805333 642.304c-21.248-114.304-5.12-220.032 48.341334-317.141333 53.461333-97.152 134.826667-168.96 244.138666-215.466667zM512 0c25.173333 0 37.76 12.202667 37.76 36.565333V402.346667c0 24.362667-12.586667 36.565333-37.76 36.565333-25.173333 0-37.76-12.202667-37.76-36.565333V36.565333c0-24.362667 12.586667-36.565333 37.76-36.565333z" fill="#000000" p-id="1838"></path></svg>